<svg width="380" height="380" viewBox="0 0 380 380" fill="none" xmlns="http://www.w3.org/2000/svg">
<mask id="mask0" mask-type="alpha" maskUnits="userSpaceOnUse" x="0" y="0" width="380" height="380">
<circle cx="190" cy="190" r="190" fill="#FFEDEF"/>
</mask>
<g mask="url(#mask0)">
<circle cx="190" cy="190" r="190" fill="#F2D7CA"/>
<g clip-path="url(#clip0)">
<path d="M244 363.5C229.6 343.5 218.333 304.834 217 285.5L148.5 256L120 363.5H244Z" fill="#F9C9B6" stroke="black" stroke-width="4"/>
<mask id="mask1" mask-type="alpha" maskUnits="userSpaceOnUse" x="120" y="256" width="124" height="118">
<path d="M244 373.5C229.6 353.5 218.333 304.834 217 285.5L148.5 256L120 373.5H244Z" fill="#AC6651"/>
</mask>
<g mask="url(#mask1)">
<g style="mix-blend-mode:multiply">
<ellipse cx="214" cy="254" rx="59" ry="54" fill="black"/>
</g>
</g>
<mask id="path-6-inside-1" fill="white">
<path fill-rule="evenodd" clip-rule="evenodd" d="M273.887 194.917C273.86 194.802 273.832 194.686 273.804 194.57C273.777 194.454 273.749 194.339 273.72 194.223L257.324 125.786C257.307 125.718 257.291 125.651 257.275 125.583C257.259 125.515 257.242 125.447 257.226 125.379L257.153 125.076L257.152 125.076C246.934 83.6315 205.157 58.1479 163.583 68.1087C122.009 78.0696 96.3164 119.718 105.989 161.293L105.987 161.294L122.979 232.212L122.993 232.208C133.595 273.113 175.063 298.149 216.33 288.262C257.598 278.375 283.217 237.265 274.132 195.997L274.145 195.994L273.887 194.917Z"/>
</mask>
<path fill-rule="evenodd" clip-rule="evenodd" d="M273.887 194.917C273.86 194.802 273.832 194.686 273.804 194.57C273.777 194.454 273.749 194.339 273.72 194.223L257.324 125.786C257.307 125.718 257.291 125.651 257.275 125.583C257.259 125.515 257.242 125.447 257.226 125.379L257.153 125.076L257.152 125.076C246.934 83.6315 205.157 58.1479 163.583 68.1087C122.009 78.0696 96.3164 119.718 105.989 161.293L105.987 161.294L122.979 232.212L122.993 232.208C133.595 273.113 175.063 298.149 216.33 288.262C257.598 278.375 283.217 237.265 274.132 195.997L274.145 195.994L273.887 194.917Z" fill="#F9C9B6"/>
<path d="M273.887 194.917L269.993 195.832L269.995 195.841L269.997 195.849L273.887 194.917ZM273.72 194.223L269.831 195.155L269.833 195.164L269.835 195.173L273.72 194.223ZM257.324 125.786L253.431 126.708L253.434 126.718L257.324 125.786ZM257.226 125.379L253.336 126.311L253.339 126.322L257.226 125.379ZM257.153 125.076L261.043 124.144L260.112 120.256L256.223 121.186L257.153 125.076ZM257.152 125.076L253.268 126.034L254.219 129.89L258.082 128.967L257.152 125.076ZM163.583 68.1087L162.651 64.2188L163.583 68.1087ZM105.989 161.293L106.923 165.183L110.785 164.255L109.885 160.387L105.989 161.293ZM105.987 161.294L105.053 157.405L101.166 158.338L102.097 162.226L105.987 161.294ZM122.979 232.212L119.089 233.144L120.021 237.035L123.912 236.101L122.979 232.212ZM122.993 232.208L126.865 231.205L125.879 227.402L122.059 228.319L122.993 232.208ZM216.33 288.262L215.398 284.372H215.398L216.33 288.262ZM274.132 195.997L273.201 192.107L269.382 193.021L270.226 196.857L274.132 195.997ZM274.145 195.994L275.076 199.884L278.967 198.952L278.035 195.062L274.145 195.994ZM277.781 194.003C277.752 193.881 277.723 193.76 277.694 193.638L269.914 195.502C269.941 195.612 269.967 195.722 269.993 195.832L277.781 194.003ZM277.694 193.638C277.665 193.517 277.636 193.395 277.606 193.274L269.835 195.173C269.861 195.282 269.888 195.392 269.914 195.502L277.694 193.638ZM253.434 126.718L269.831 195.155L277.61 193.291L261.213 124.854L253.434 126.718ZM261.216 124.864C261.199 124.794 261.182 124.722 261.165 124.651L253.385 126.515C253.4 126.579 253.416 126.643 253.431 126.708L261.216 124.864ZM261.165 124.651C261.148 124.58 261.131 124.509 261.113 124.437L253.339 126.322C253.354 126.386 253.37 126.45 253.385 126.515L261.165 124.651ZM253.263 126.008L253.336 126.311L261.116 124.447L261.043 124.144L253.263 126.008ZM258.082 128.967L258.084 128.966L256.223 121.186L256.222 121.186L258.082 128.967ZM261.036 124.119C250.292 80.5404 206.365 53.7453 162.651 64.2188L164.515 71.9986C203.949 62.5505 243.576 86.7225 253.268 126.034L261.036 124.119ZM162.651 64.2188C118.937 74.6923 91.9225 118.484 102.093 162.2L109.885 160.387C100.71 120.952 125.081 81.4468 164.515 71.9986L162.651 64.2188ZM106.921 165.183L106.923 165.183L105.055 157.404L105.053 157.405L106.921 165.183ZM126.869 231.28L109.877 160.362L102.097 162.226L119.089 233.144L126.869 231.28ZM122.059 228.319L122.045 228.322L123.912 236.101L123.926 236.098L122.059 228.319ZM119.12 233.212C130.269 276.223 173.87 302.548 217.262 292.152L215.398 284.372C176.255 293.751 136.921 270.003 126.865 231.205L119.12 233.212ZM217.262 292.152C260.654 281.756 287.592 238.53 278.039 195.137L270.226 196.857C278.843 236 254.542 274.994 215.398 284.372L217.262 292.152ZM273.213 192.104L273.201 192.107L275.064 199.887L275.076 199.884L273.213 192.104ZM269.997 195.849L270.255 196.926L278.035 195.062L277.777 193.985L269.997 195.849Z" fill="black" mask="url(#path-6-inside-1)"/>
</g>
<path d="M223 140.214C228.667 137.548 242 135.114 250 146.714" stroke="black" stroke-width="4" stroke-linecap="round"/>
<path d="M147.579 165.521C149.65 159.61 157.261 148.396 171.142 150.822" stroke="black" stroke-width="4" stroke-linecap="round"/>
<path d="M259 175.985C259 188.683 248.73 198.969 236.07 198.969C223.41 198.969 213.14 188.683 213.14 175.985C213.14 163.286 223.41 153 236.07 153C248.73 153 259 163.286 259 175.985Z" stroke="black" stroke-width="4"/>
<path d="M199.346 184.015C199.346 196.714 189.075 207 176.415 207C163.755 207 153.485 196.714 153.485 184.015C153.485 171.317 163.755 161.031 176.415 161.031C189.075 161.031 199.346 171.317 199.346 184.015Z" stroke="black" stroke-width="4"/>
<path d="M213.811 182.231C213.811 180.338 213.06 178.522 211.724 177.183C210.389 175.844 208.577 175.092 206.688 175.092C204.799 175.092 202.987 175.844 201.651 177.183C200.315 178.522 199.565 180.338 199.565 182.231" stroke="black" stroke-width="4"/>
<path d="M153.711 185.8L127 190.708" stroke="black" stroke-width="4"/>
<path d="M285.711 160.801L259 165.708" stroke="black" stroke-width="4"/>
<path d="M242.734 367.89C242.297 367.861 241.929 367.834 241.633 367.809C235.751 358.416 230.393 342.938 226.241 327.041C222.198 311.559 219.359 295.922 218.294 285.6C253.827 274.846 275.999 236.57 270.663 197.179C270.657 197.113 270.65 197.066 270.649 197.058L270.649 197.056C270.641 196.998 270.631 196.93 270.62 196.86C270.597 196.717 270.565 196.526 270.525 196.293C270.444 195.826 270.324 195.167 270.169 194.341C269.858 192.689 269.402 190.355 268.818 187.529C267.651 181.879 265.972 174.25 263.923 166.158C261.875 158.071 259.451 149.493 256.792 141.956C254.153 134.475 251.215 127.821 248.079 123.727L247.788 123.346L247.351 123.148C245.507 122.312 243.591 121.38 241.59 120.406C232.087 115.782 220.659 110.222 205.865 109.611C187.848 108.866 165.066 115.405 134.304 138.716L132.398 140.161L134.228 141.701C149.458 154.525 152.765 171.556 152.059 186.034C151.528 196.936 148.729 206.231 147.105 210.977C146.06 209.311 145.38 207.236 144.865 204.81C144.496 203.076 144.228 201.249 143.947 199.339L143.902 199.036C143.608 197.042 143.296 194.965 142.841 192.959C141.933 188.963 140.398 184.956 136.971 182.11C133.521 179.244 128.491 177.828 121.192 178.254L118.99 178.382L119.431 180.543L130.3 233.849L130.318 233.935L130.343 234.02C134.223 246.869 140.878 258.014 149.395 266.819C149.468 266.945 149.573 267.132 149.708 267.373C149.985 267.868 150.384 268.592 150.867 269.502C151.833 271.323 153.133 273.881 154.466 276.826C157.159 282.773 159.887 290.084 160.413 296.061C160.947 302.128 159.487 309.946 157.82 316.396C156.994 319.59 156.133 322.392 155.479 324.394C155.352 324.781 155.233 325.139 155.124 325.463C153.089 324.462 151.122 323.91 149.223 323.798C146.667 323.648 144.355 324.302 142.31 325.547C138.306 327.982 135.388 332.626 133.221 337.77C129.26 347.169 127.352 359.355 126.47 366.936C102.732 361.242 84.3996 355.465 71.9208 351.074C65.4984 348.815 60.6267 346.922 57.3666 345.597C55.7366 344.935 54.5095 344.415 53.693 344.061C53.5016 343.978 53.3327 343.905 53.1865 343.841C53.0401 343.449 52.8394 342.901 52.5959 342.204C52.053 340.652 51.2976 338.368 50.4569 335.462C48.7749 329.649 46.754 321.36 45.4068 311.478C42.7097 291.693 42.7294 265.652 53.4459 240.329C55.1789 236.235 57.3437 232.029 59.6895 227.472C68.7491 209.872 80.5075 187.03 80.5075 145.07C80.5075 83.8651 137.501 41.9109 190.549 41.9109C205.016 41.9109 216.624 43.6428 225.951 49.5303C235.23 55.3869 242.555 65.5552 247.998 83.1036C248.538 84.8427 250.392 86.0355 252.302 85.3879C263.065 81.7396 279.431 85.4153 293.28 94.8619C307.051 104.256 317.787 118.996 317.787 136.802C317.787 152.236 315.257 162.666 312.792 172.816C309.808 185.103 306.928 196.96 308.96 216.281C309.638 222.72 311.015 227.286 312.94 231.072C314.837 234.801 317.228 237.69 319.749 240.735L319.805 240.803C325.805 248.051 328.543 254.021 329.428 259.285C330.311 264.539 329.385 269.301 327.671 274.231C326.81 276.708 325.763 279.194 324.653 281.812L324.557 282.038C323.484 284.57 322.361 287.22 321.352 290.009C319.265 295.776 317.638 302.201 317.799 309.814C317.937 316.278 319.033 320.705 320.672 324.055C322.296 327.373 324.394 329.497 326.226 331.351L326.273 331.399C327.939 333.086 329.326 334.507 330.354 336.501C331.277 338.293 331.961 340.661 332.073 344.216C309.117 358.48 286.4 364.374 269.344 366.693C260.705 367.867 253.528 368.123 248.522 368.086C246.019 368.067 244.06 367.976 242.734 367.89Z" fill="black" stroke="black" stroke-width="3.82184"/>
<path d="M134.466 217.111L135 216.536V215.751V182.249V181.13L134.046 180.545C130.312 178.254 125.772 177 121.08 177C115.44 177 110.159 178.747 106.398 182.295C102.594 185.882 100.542 191.127 101.087 197.666C101.618 204.038 103.757 208.727 107.305 211.843C107.013 212.842 106.927 213.92 107.062 215.053C107.452 218.322 109.104 220.677 111.657 222.128C114.091 223.511 117.206 224 120.524 224C126.003 224 130.808 221.053 134.466 217.111Z" stroke="black" stroke-width="4"/>
<path fill-rule="evenodd" clip-rule="evenodd" d="M140.972 197.984C141.043 197.332 141.08 196.67 141.08 196C141.08 185.783 131.573 179 121.08 179C110.587 179 102.08 185.5 103.08 197.5C103.636 204.177 106.026 208.572 109.731 211.217C109.142 212.241 108.885 213.444 109.048 214.817C109.677 220.098 114.186 222 120.524 222C131.629 222 140.416 207.953 140.972 197.984Z" fill="#F9C9B6"/>
<path d="M125.5 187.5C121.5 185.667 112.7 184.7 109.5 195.5" stroke="#171921" stroke-width="4"/>
<path d="M115 188C117.167 189.833 121.3 195.5 120.5 203.5" stroke="#171921" stroke-width="4"/>
<path d="M231.686 332.467L231.853 332.514L232.025 332.531C269.727 336.319 292.394 356.744 308.915 385.105H84.9427C98.3632 355.594 117.395 336.962 148.124 328.426C161.216 324.789 176.485 322.97 194.426 322.97C202.106 322.97 208.083 324.396 213.782 326.288C215.971 327.015 218.099 327.804 220.289 328.616C220.978 328.871 221.673 329.129 222.377 329.387C225.302 330.461 228.356 331.535 231.686 332.467Z" fill="#9287FF" stroke="black" stroke-width="4"/>
<path d="M138.454 330.723L145.961 311.14C146.163 310.614 146.768 310.368 147.291 310.593C178.27 323.882 206.468 322.96 232.609 314.142C233.057 313.991 233.555 314.174 233.801 314.584L245.227 333.621C245.528 334.121 245.355 334.761 244.835 335.01C217.23 348.225 165.419 345.985 138.911 331.957C138.463 331.721 138.275 331.191 138.454 330.723Z" fill="#E0DDFF" stroke="black" stroke-width="4"/>
<path d="M239.921 217.33C239.75 215.262 237.637 214.111 235.845 214.817C231.616 216.483 217.627 221.783 207.763 223.14C196.94 224.628 180.551 222.82 175.807 222.231C173.877 221.992 172.158 223.65 172.491 225.665C173.142 229.607 174.484 233.408 176.459 236.891C178.661 240.775 181.607 244.187 185.128 246.933C188.649 249.678 192.676 251.704 196.98 252.893C201.283 254.082 205.779 254.412 210.21 253.864C214.641 253.316 218.921 251.9 222.805 249.698C226.689 247.495 230.102 244.55 232.847 241.029C235.593 237.508 237.618 233.481 238.807 229.177C239.873 225.321 240.249 221.31 239.921 217.33Z" fill="#171921" stroke="#171921" stroke-width="4"/>
<mask id="mask2" mask-type="alpha" maskUnits="userSpaceOnUse" x="174" y="216" width="65" height="37">
<path d="M237.793 216.192C238.309 220.362 237.999 224.594 236.88 228.644C235.76 232.695 233.854 236.485 231.27 239.799C228.686 243.113 225.474 245.885 221.819 247.958C218.163 250.031 214.135 251.363 209.965 251.879C205.794 252.395 201.563 252.084 197.512 250.965C193.462 249.846 189.671 247.94 186.358 245.356C183.044 242.771 180.271 239.56 178.199 235.904C176.126 232.249 174.794 228.221 174.278 224.05L237.793 216.192Z" fill="#171921"/>
</mask>
<g mask="url(#mask2)">
<circle cx="210.522" cy="256.314" r="21.5" transform="rotate(-7.05286 210.522 256.314)" fill="#FC909F"/>
</g>
<path fill-rule="evenodd" clip-rule="evenodd" d="M161.287 181.072C161.401 181.885 162.434 182.066 163.009 181.48C165.474 178.964 169.264 177.116 173.663 176.593C176.258 176.285 178.754 176.475 180.979 177.065C181.733 177.266 182.474 176.629 182.21 175.895C180.545 171.249 175.845 168.196 170.736 168.803C164.794 169.509 160.55 174.897 161.256 180.839C161.266 180.917 161.276 180.995 161.287 181.072Z" fill="#171921"/>
<path fill-rule="evenodd" clip-rule="evenodd" d="M225.385 171.073C225.498 171.886 226.531 172.067 227.106 171.482C229.549 168.996 233.298 167.17 237.649 166.653C240.213 166.348 242.681 166.535 244.88 167.117C245.634 167.316 246.375 166.679 246.111 165.946C244.456 161.352 239.804 158.335 234.748 158.935C228.863 159.635 224.658 164.973 225.357 170.859C225.366 170.93 225.375 171.002 225.385 171.073Z" fill="#171921"/>
<path d="M206.5 173C206.167 176.833 206.5 185.2 210.5 188C215.5 191.5 210 200 200 198" stroke="#171921" stroke-width="4"/>
</g>
<defs>
<clipPath id="clip0">
<rect width="200" height="320" fill="white" transform="translate(90 44)"/>
</clipPath>
</defs>
</svg>
