<svg width="208" height="179" viewBox="0 0 208 179" fill="none" xmlns="http://www.w3.org/2000/svg">
<path d="M122.115 72.0476C121.75 64.6902 120.01 47.4863 101.052 47.0241C80.1625 47.1223 81.0158 65.8968 79.9389 72.2459C78.9842 77.8745 75.8303 81.9065 80.0442 92.5465C82.5213 98.8015 91.7672 104.295 101.349 104.246C110.454 104.2 119.914 98.8927 122.229 93.9976C126.981 83.9516 122.481 79.405 122.115 72.0476Z" fill="black"/>
<path d="M73.68 74.8334C72.7496 69.5088 93.6062 65.5388 96.6874 64.2611L112.281 64.1739C108.832 67.6744 123.679 73.2932 127.169 76.1547C131.531 79.7315 130.622 87.8393 127.244 93.26C123.865 98.6807 130.661 96.8421 135.03 102.039C139.4 107.237 132.056 113.4 130.753 117.909C129.449 122.417 139.278 122.723 138.924 128.126C138.64 132.449 136.325 138.825 135.202 141.472C113.564 187.328 67.6933 156.074 73.9719 141.814C75.2494 138.913 82.0511 130.965 78.6242 125.223C75.1974 119.48 73.8534 114.626 78.5567 109.738C83.26 104.85 76.4426 101.647 73.7773 97.1603C71.112 92.6737 73.7475 90.3182 78.4531 85.9704C83.1588 81.6226 74.8429 81.4891 73.68 74.8334Z" fill="black"/>
<mask id="path-3-inside-1" fill="white">
<path fill-rule="evenodd" clip-rule="evenodd" d="M123.281 131.378C123.005 131.504 122.733 131.643 122.463 131.796C117.658 134.517 115.842 140.396 118.408 144.927C120.927 149.376 126.734 150.871 131.493 148.347L131.495 148.35L170.681 126.162C170.919 126.05 171.154 125.928 171.387 125.796C176.192 123.075 178.008 117.196 175.442 112.665C172.992 108.338 167.432 106.805 162.752 109.046L162.744 109.032L162.5 109.17C162.365 109.24 162.23 109.312 162.096 109.388C161.962 109.464 161.83 109.542 161.701 109.623L123.281 131.378Z"/>
</mask>
<path fill-rule="evenodd" clip-rule="evenodd" d="M123.281 131.378C123.005 131.504 122.733 131.643 122.463 131.796C117.658 134.517 115.842 140.396 118.408 144.927C120.927 149.376 126.734 150.871 131.493 148.347L131.495 148.35L170.681 126.162C170.919 126.05 171.154 125.928 171.387 125.796C176.192 123.075 178.008 117.196 175.442 112.665C172.992 108.338 167.432 106.805 162.752 109.046L162.744 109.032L162.5 109.17C162.365 109.24 162.23 109.312 162.096 109.388C161.962 109.464 161.83 109.542 161.701 109.623L123.281 131.378Z" fill="#F6C5A1"/>
<path d="M123.281 131.378L124.114 133.196L124.192 133.16L124.267 133.118L123.281 131.378ZM131.493 148.347L133.233 147.361L132.275 145.668L130.556 146.58L131.493 148.347ZM131.495 148.35L129.755 149.336L130.74 151.076L132.48 150.091L131.495 148.35ZM170.681 126.162L169.827 124.353L169.76 124.385L169.695 124.421L170.681 126.162ZM162.752 109.046L161.011 110.031L161.931 111.656L163.615 110.85L162.752 109.046ZM162.744 109.032L164.484 108.047L163.499 106.306L161.758 107.292L162.744 109.032ZM162.5 109.17L163.411 110.951L163.449 110.932L163.486 110.911L162.5 109.17ZM161.701 109.623L162.687 111.363L162.724 111.342L162.76 111.32L161.701 109.623ZM122.448 129.559C122.121 129.71 121.797 129.875 121.478 130.055L123.449 133.536C123.668 133.412 123.89 133.298 124.114 133.196L122.448 129.559ZM121.478 130.055C115.809 133.265 113.504 140.325 116.667 145.912L120.148 143.941C118.181 140.466 119.507 135.768 123.449 133.536L121.478 130.055ZM116.667 145.912C119.773 151.397 126.813 153.093 132.43 150.114L130.556 146.58C126.656 148.648 122.081 147.354 120.148 143.941L116.667 145.912ZM133.235 147.365L133.233 147.361L129.752 149.332L129.755 149.336L133.235 147.365ZM169.695 124.421L130.509 146.61L132.48 150.091L171.666 127.902L169.695 124.421ZM171.535 127.97C171.817 127.837 172.096 127.692 172.372 127.536L170.401 124.055C170.211 124.163 170.02 124.262 169.827 124.353L171.535 127.97ZM172.372 127.536C178.041 124.326 180.346 117.267 177.183 111.68L173.702 113.651C175.669 117.125 174.343 121.823 170.401 124.055L172.372 127.536ZM177.183 111.68C174.162 106.346 167.419 104.595 161.888 107.242L163.615 110.85C167.446 109.016 171.822 110.33 173.702 113.651L177.183 111.68ZM161.004 110.018L161.011 110.031L164.492 108.06L164.484 108.047L161.004 110.018ZM163.486 110.911L163.729 110.773L161.758 107.292L161.515 107.43L163.486 110.911ZM161.59 107.39C161.429 107.472 161.269 107.558 161.11 107.648L163.081 111.128C163.19 111.067 163.3 111.007 163.411 110.951L161.59 107.39ZM161.11 107.648C160.952 107.737 160.796 107.83 160.642 107.926L162.76 111.32C162.865 111.254 162.972 111.19 163.081 111.128L161.11 107.648ZM124.267 133.118L162.687 111.363L160.716 107.882L122.296 129.637L124.267 133.118Z" fill="black" mask="url(#path-3-inside-1)"/>
<mask id="path-5-inside-2" fill="white">
<path fill-rule="evenodd" clip-rule="evenodd" d="M133.468 150.855C127.52 153.909 120.17 151.748 116.845 145.876C113.52 140.005 115.449 132.59 121.127 129.06L121.122 129.051L142.254 117.085L154.606 138.899L133.94 150.601C133.936 150.603 133.932 150.605 133.928 150.607C133.924 150.61 133.92 150.612 133.916 150.614L133.473 150.865L133.468 150.855Z"/>
</mask>
<path fill-rule="evenodd" clip-rule="evenodd" d="M133.468 150.855C127.52 153.909 120.17 151.748 116.845 145.876C113.52 140.005 115.449 132.59 121.127 129.06L121.122 129.051L142.254 117.085L154.606 138.899L133.94 150.601C133.936 150.603 133.932 150.605 133.928 150.607C133.924 150.61 133.92 150.612 133.916 150.614L133.473 150.865L133.468 150.855Z" fill="#C64A4A"/>
<path d="M133.468 150.855L135.209 149.87L134.263 148.199L132.555 149.076L133.468 150.855ZM121.127 129.06L122.183 130.759L123.813 129.745L122.867 128.075L121.127 129.06ZM121.122 129.051L120.136 127.311L118.396 128.296L119.381 130.036L121.122 129.051ZM142.254 117.085L143.994 116.1L143.009 114.359L141.268 115.345L142.254 117.085ZM154.606 138.899L155.591 140.639L157.331 139.654L156.346 137.913L154.606 138.899ZM133.94 150.601L132.954 148.86L132.952 148.861L133.94 150.601ZM133.916 150.614L132.933 148.873L132.931 148.874L133.916 150.614ZM133.473 150.865L131.733 151.85L132.719 153.591L134.459 152.605L133.473 150.865ZM132.555 149.076C127.557 151.642 121.379 149.825 118.586 144.891L115.105 146.862C118.96 153.671 127.483 156.176 134.382 152.635L132.555 149.076ZM118.586 144.891C115.792 139.957 117.412 133.725 122.183 130.759L120.071 127.362C113.486 131.456 111.249 140.053 115.105 146.862L118.586 144.891ZM122.867 128.075L122.862 128.066L119.381 130.036L119.387 130.046L122.867 128.075ZM122.107 130.791L143.239 118.826L141.268 115.345L120.136 127.311L122.107 130.791ZM140.513 118.071L152.865 139.884L156.346 137.913L143.994 116.1L140.513 118.071ZM153.62 137.159L132.954 148.86L134.925 152.341L155.591 140.639L153.62 137.159ZM132.952 148.861C132.949 148.863 132.946 148.865 132.942 148.867L134.913 152.348C134.918 152.345 134.922 152.343 134.927 152.34L132.952 148.861ZM132.942 148.867C132.939 148.869 132.936 148.871 132.933 148.873L134.9 152.355C134.904 152.353 134.909 152.35 134.913 152.348L132.942 148.867ZM132.931 148.874L132.488 149.124L134.459 152.605L134.902 152.354L132.931 148.874ZM135.214 149.879L135.209 149.87L131.728 151.841L131.733 151.85L135.214 149.879Z" fill="black" mask="url(#path-5-inside-2)"/>
<mask id="path-7-inside-3" fill="white">
<path fill-rule="evenodd" clip-rule="evenodd" d="M66.2039 145.501C66.4414 145.689 66.6892 145.87 66.9471 146.04C71.5498 149.092 77.6134 148.048 80.4905 143.708C83.3157 139.446 82.0179 133.592 77.6122 130.493L77.6145 130.489L40.0818 105.606C39.8741 105.445 39.6587 105.291 39.4359 105.143C34.8332 102.091 28.7696 103.136 25.8925 107.475C23.1449 111.62 24.2969 117.271 28.4148 120.429L28.4062 120.442L28.6396 120.597C28.7628 120.686 28.8886 120.773 29.0169 120.858C29.1451 120.943 29.2745 121.025 29.4049 121.104L66.2039 145.501Z"/>
</mask>
<path fill-rule="evenodd" clip-rule="evenodd" d="M66.2039 145.501C66.4414 145.689 66.6892 145.87 66.9471 146.04C71.5498 149.092 77.6134 148.048 80.4905 143.708C83.3157 139.446 82.0179 133.592 77.6122 130.493L77.6145 130.489L40.0818 105.606C39.8741 105.445 39.6587 105.291 39.4359 105.143C34.8332 102.091 28.7696 103.136 25.8925 107.475C23.1449 111.62 24.2969 117.271 28.4148 120.429L28.4062 120.442L28.6396 120.597C28.7628 120.686 28.8886 120.773 29.0169 120.858C29.1451 120.943 29.2745 121.025 29.4049 121.104L66.2039 145.501Z" fill="#F6C5A1"/>
<path d="M66.2039 145.501L67.4475 143.934L67.3804 143.881L67.309 143.834L66.2039 145.501ZM77.6122 130.493L75.9453 129.388L74.8702 131.009L76.4615 132.129L77.6122 130.493ZM77.6145 130.489L79.2814 131.595L80.3866 129.928L78.7196 128.823L77.6145 130.489ZM40.0818 105.606L38.8565 107.187L38.915 107.232L38.9767 107.273L40.0818 105.606ZM28.4148 120.429L30.0817 121.534L31.1133 119.978L29.6319 118.842L28.4148 120.429ZM28.4062 120.442L26.7392 119.337L25.6341 121.004L27.301 122.109L28.4062 120.442ZM28.6396 120.597L29.8147 118.978L29.7802 118.953L29.7447 118.93L28.6396 120.597ZM29.4049 121.104L30.5101 119.437L30.4745 119.413L30.4381 119.391L29.4049 121.104ZM64.9603 147.067C65.2425 147.291 65.5365 147.505 65.842 147.707L68.0522 144.374C67.842 144.234 67.6404 144.088 67.4475 143.934L64.9603 147.067ZM65.842 147.707C71.2715 151.307 78.6096 150.164 82.1574 144.813L78.8236 142.603C76.6171 145.931 71.828 146.877 68.0522 144.374L65.842 147.707ZM82.1574 144.813C85.6407 139.559 83.9635 132.516 78.7629 128.857L76.4615 132.129C80.0722 134.669 80.9907 139.334 78.8236 142.603L82.1574 144.813ZM75.9476 129.384L75.9453 129.388L79.2791 131.598L79.2814 131.595L75.9476 129.384ZM38.9767 107.273L76.5094 132.156L78.7196 128.823L41.1869 103.939L38.9767 107.273ZM41.3071 104.026C41.0604 103.834 40.805 103.651 40.541 103.476L38.3307 106.81C38.5125 106.93 38.6877 107.056 38.8565 107.187L41.3071 104.026ZM40.541 103.476C35.1114 99.8763 27.7734 101.019 24.2255 106.37L27.5594 108.581C29.7658 105.253 34.5549 104.307 38.3307 106.81L40.541 103.476ZM24.2255 106.37C20.8387 111.479 22.3321 118.284 27.1977 122.016L29.6319 118.842C26.2616 116.257 25.451 111.761 27.5594 108.581L24.2255 106.37ZM30.0731 121.547L30.0817 121.534L26.7479 119.324L26.7392 119.337L30.0731 121.547ZM29.7447 118.93L29.5113 118.775L27.301 122.109L27.5345 122.264L29.7447 118.93ZM27.4645 122.215C27.6107 122.321 27.7598 122.425 27.9117 122.525L30.122 119.191C30.0174 119.122 29.915 119.051 29.8147 118.978L27.4645 122.215ZM27.9117 122.525C28.0636 122.626 28.217 122.723 28.3718 122.816L30.4381 119.391C30.332 119.327 30.2266 119.261 30.122 119.191L27.9117 122.525ZM67.309 143.834L30.5101 119.437L28.2998 122.771L65.0988 147.168L67.309 143.834Z" fill="black" mask="url(#path-7-inside-3)"/>
<mask id="path-9-inside-4" fill="white">
<path fill-rule="evenodd" clip-rule="evenodd" d="M78.9538 127.595C84.3702 131.515 85.7736 139.047 82.0452 144.671C78.3168 150.294 70.8328 151.934 65.1138 148.471L65.1079 148.48L44.8674 135.061L58.7192 114.168L78.5131 127.291C78.5169 127.293 78.5207 127.295 78.5244 127.298C78.5282 127.3 78.5319 127.303 78.5357 127.305L78.9597 127.587L78.9538 127.595Z"/>
</mask>
<path fill-rule="evenodd" clip-rule="evenodd" d="M78.9538 127.595C84.3702 131.515 85.7736 139.047 82.0452 144.671C78.3168 150.294 70.8328 151.934 65.1138 148.471L65.1079 148.48L44.8674 135.061L58.7192 114.168L78.5131 127.291C78.5169 127.293 78.5207 127.295 78.5244 127.298C78.5282 127.3 78.5319 127.303 78.5357 127.305L78.9597 127.587L78.9538 127.595Z" fill="#C64A4A"/>
<path d="M78.9538 127.595L77.2869 126.49L76.2261 128.09L77.7813 129.216L78.9538 127.595ZM65.1138 148.471L66.1498 146.76L64.5076 145.766L63.4469 147.366L65.1138 148.471ZM65.1079 148.48L64.0028 150.147L65.6697 151.252L66.7748 149.585L65.1079 148.48ZM44.8674 135.061L43.2005 133.956L42.0953 135.623L43.7623 136.728L44.8674 135.061ZM58.7192 114.168L59.8243 112.501L58.1574 111.396L57.0523 113.062L58.7192 114.168ZM78.5131 127.291L77.408 128.957L77.4098 128.959L78.5131 127.291ZM78.5357 127.305L77.4288 128.971L77.4306 128.972L78.5357 127.305ZM78.9597 127.587L80.6266 128.692L81.7318 127.025L80.0648 125.92L78.9597 127.587ZM77.7813 129.216C82.3323 132.509 83.5115 138.839 80.3783 143.565L83.7122 145.776C88.0358 139.254 86.4081 130.521 80.1263 125.975L77.7813 129.216ZM80.3783 143.565C77.2451 148.291 70.9549 149.67 66.1498 146.76L64.0779 150.182C70.7106 154.198 79.3886 152.297 83.7122 145.776L80.3783 143.565ZM63.4469 147.366L63.441 147.375L66.7748 149.585L66.7807 149.576L63.4469 147.366ZM66.213 146.813L45.9725 133.394L43.7623 136.728L64.0028 150.147L66.213 146.813ZM46.5343 136.166L60.3861 115.273L57.0523 113.062L43.2005 133.956L46.5343 136.166ZM57.6141 115.835L77.408 128.957L79.6183 125.624L59.8243 112.501L57.6141 115.835ZM77.4098 128.959C77.4129 128.961 77.4161 128.963 77.4193 128.965L79.6296 125.631C79.6252 125.628 79.6209 125.625 79.6165 125.622L77.4098 128.959ZM77.4193 128.965C77.4225 128.967 77.4256 128.969 77.4288 128.971L79.6426 125.64C79.6383 125.637 79.6339 125.634 79.6296 125.631L77.4193 128.965ZM77.4306 128.972L77.8546 129.253L80.0648 125.92L79.6408 125.639L77.4306 128.972ZM77.2928 126.481L77.2869 126.49L80.6207 128.701L80.6266 128.692L77.2928 126.481Z" fill="black" mask="url(#path-9-inside-4)"/>
<path fill-rule="evenodd" clip-rule="evenodd" d="M41.744 109.243L42.2365 109.132L32.421 65.6901C32.3811 65.4341 32.3322 65.1773 32.2741 64.9202C31.0704 59.5931 26.3708 56.116 21.7771 57.154C17.3901 58.1452 14.6863 62.8955 15.5001 67.9608L15.4864 67.9638L15.5466 68.2303C15.5743 68.3796 15.605 68.5292 15.6388 68.6788C15.6726 68.8285 15.7092 68.9767 15.7484 69.1234L25.6357 112.883L26.078 112.783C27.4326 117.445 31.6731 120.409 35.8221 119.471C39.9711 118.534 42.5255 114.035 41.744 109.243Z" fill="#F6C5A1"/>
<path d="M42.7304 110.618L31.7911 62.7823C30.9224 60.545 27.8016 56.2708 22.2681 57.0718C16.7347 57.8727 15.1763 63.7284 15.0888 66.5561L25.9238 114.51" stroke="black" stroke-width="2"/>
<rect x="71.1232" y="114.983" width="61" height="63" rx="10" fill="#C64A4A" stroke="black" stroke-width="2"/>
<rect x="91.4932" y="85.4869" width="19.9967" height="36.0165" fill="#F6C5A1"/>
<rect x="91.4932" y="85.4869" width="19.9967" height="14.6013" fill="black"/>
<path d="M91.3346 121.503V85.4869H112.403V121.503" stroke="black" stroke-width="2"/>
<path d="M118.123 115.983H84.1232C85.0214 120.463 89.9655 130.555 100.837 130.555C111.709 130.555 116.874 120.463 118.123 115.983Z" fill="#F6C5A1"/>
<path d="M92.1036 116.055H84.2377C84.2377 119.972 89.9934 129.807 100.865 129.807C111.737 129.807 117.894 119.502 117.894 116.055C115.681 116.055 111.098 116.055 111.556 116.055" stroke="black" stroke-width="2"/>
<path d="M115.903 57.2113C110.985 48.5374 102.323 45.7379 91.7362 51.906C84.5611 57.5886 82.963 67.0262 84.0259 77.3715C84.4557 81.5554 84.9962 84.8392 85.2917 88.38C86.2087 99.3669 98.2811 104.826 101.863 104.826C107.502 104.826 117.003 97.1338 118.188 88.38C119.268 80.4036 119.157 81.0338 119.24 77.3715C119.324 73.7092 120.821 65.8852 115.903 57.2113Z" fill="#F6C5A1" stroke="black" stroke-width="2"/>
<path d="M101.814 78.5399C101.742 79.4985 101.814 81.5908 102.686 82.291C103.775 83.1663 102.577 85.292 100.398 84.7918" stroke="#171921" stroke-width="2"/>
<ellipse cx="107.348" cy="77.6445" rx="1.51293" ry="1.74129" fill="black"/>
<ellipse cx="95.2449" cy="77.6445" rx="1.51292" ry="1.74129" fill="black"/>
<path d="M104.21 73.867C104.78 73.4027 105.657 72.474 107.368 72.474C108.821 72.474 110.043 73.4956 110.262 73.867" stroke="black" stroke-width="3" stroke-linecap="round"/>
<path d="M92.1068 73.867C92.6769 73.4027 93.554 72.474 95.2642 72.474C96.7173 72.474 97.9392 73.4956 98.1585 73.867" stroke="black" stroke-width="3" stroke-linecap="round"/>
<path d="M107.779 89.2183C107.878 88.6884 107.659 88.2216 107.299 87.9346C106.946 87.6536 106.457 87.54 105.979 87.6653C104.847 87.9616 103.244 88.3187 102.047 88.3447C100.7 88.374 98.8735 88.0059 97.635 87.7064C97.1561 87.5906 96.6707 87.7122 96.3228 87.9981C95.9677 88.29 95.7548 88.7582 95.8579 89.2847C95.9356 89.6814 96.0448 90.0708 96.1849 90.448C96.4907 91.2713 96.9379 92.0221 97.5037 92.656C98.0696 93.2901 98.7436 93.7954 99.4892 94.1398C100.235 94.4843 101.036 94.6601 101.846 94.655C102.656 94.6499 103.455 94.464 104.197 94.1101C104.939 93.7564 105.609 93.2425 106.168 92.6014C106.728 91.9603 107.168 91.204 107.465 90.3768C107.601 90.0007 107.705 89.6129 107.779 89.2183Z" fill="#171921" stroke="#171921"/>
<mask id="mask0" mask-type="alpha" maskUnits="userSpaceOnUse" x="96" y="87" width="12" height="8">
<path d="M107.409 87.7789C107.413 88.6116 107.272 89.437 106.995 90.2081C106.717 90.9792 106.308 91.6808 105.792 92.2729C105.275 92.865 104.66 93.3359 103.983 93.6588C103.305 93.9818 102.578 94.1504 101.843 94.155C101.108 94.1596 100.38 94.0002 99.6993 93.6859C99.0188 93.3715 98.3995 92.9083 97.8769 92.3228C97.3544 91.7373 96.9387 91.0409 96.6537 90.2733C96.3686 89.5058 96.2198 88.6822 96.2157 87.8495L107.409 87.7789Z" fill="#171921"/>
</mask>
<g mask="url(#mask0)">
<ellipse rx="3.76026" ry="4.26028" transform="matrix(0.99998 -0.00630508 0.00491185 0.999988 101.849 95.0407)" fill="#FC909F"/>
</g>
<path d="M121.811 71.9436C121.798 68.9367 121.262 65.9621 120.234 63.1898C119.206 60.4174 117.707 57.9015 115.821 55.7858C113.935 53.6701 111.7 51.9959 109.243 50.859C106.786 49.722 104.155 49.1444 101.501 49.1593C98.8471 49.1741 96.2217 49.7811 93.7748 50.9455C91.3278 52.1099 89.1072 53.809 87.2398 55.9457C85.3725 58.0825 83.8948 60.615 82.8913 63.3987C81.8877 66.1824 81.378 69.1629 81.3911 72.1698L101.549 60.0701L121.811 71.9436Z" fill="black"/>
<path fill-rule="evenodd" clip-rule="evenodd" d="M175.416 117.481L175.891 117.652L191.032 75.7679C191.136 75.5308 191.233 75.2881 191.323 75.0401C193.179 69.904 191.094 64.4425 186.665 62.8415C182.435 61.3126 177.598 63.8573 175.554 68.5627L175.541 68.558L175.448 68.8149C175.391 68.9556 175.336 69.0981 175.284 69.2424C175.232 69.3867 175.183 69.5312 175.137 69.676L159.885 111.867L160.312 112.021C158.941 116.678 160.916 121.46 164.916 122.906C168.916 124.352 173.493 121.938 175.416 117.481Z" fill="#F6C5A1"/>
<path d="M175.506 119.171L192.068 72.9791C192.542 70.6263 192.216 65.344 187.123 63.037C182.03 60.73 177.562 64.8231 175.964 67.158L159.251 113.393" stroke="black" stroke-width="2"/>
<ellipse rx="7.88889" ry="8.05458" transform="matrix(0.999659 0.0261008 0.0261008 -0.999659 183.389 70.6458)" fill="#F6C5A1"/>
<path d="M165.763 57.6136C162.582 61.9498 171.985 69.5081 175.378 73.3872L191.967 72.345C193.922 64.3691 196.18 45.7076 192.254 45.6051C189.338 45.5289 189.493 49.0557 189.478 52.2429C189.458 48.6643 188.549 43.5016 186.411 43.4458C183.169 43.3611 184.316 49.6251 183.58 52.7275C183.885 49.3909 183.155 42.6918 181.191 42.6406C177.917 42.5551 178.616 49.2625 178.31 52.5991C177.967 49.0226 179.192 43.9262 175.918 43.8407C172.645 43.7553 173.023 55.5735 173.515 61.8295C171.172 59.5386 167.768 54.8801 165.763 57.6136Z" fill="#F6C5A1"/>
<path d="M184.737 68.2978C184.321 65.7903 182.955 64.1659 180.661 62.6307C178.701 61.3189 174.912 61.4592 174.122 61.8925" stroke="black" stroke-width="2" stroke-linecap="round"/>
<path d="M189.701 52.2122C189.703 52.4314 189.7 52.6448 189.695 52.8506C189.699 52.6401 189.7 52.4269 189.701 52.2122Z" fill="#F6C5A1"/>
<path d="M174.757 71.8591C171.364 67.98 162.805 61.9191 165.986 57.5829C167.991 54.8494 171.395 59.5079 173.738 61.7988C173.246 55.5427 172.868 43.7245 176.142 43.81C179.415 43.8955 178.19 48.9918 178.534 52.5683C178.839 49.2318 178.141 42.5244 181.414 42.6098C183.378 42.6611 184.108 49.3602 183.803 52.6968C184.539 49.5944 183.392 43.3304 186.634 43.4151C188.903 43.4743 189.788 49.2855 189.695 52.8506C189.751 49.5167 189.365 45.4931 192.477 45.5744C196.403 45.6768 193.465 64.8571 191.509 72.833" stroke="black" stroke-width="2" stroke-linecap="round" stroke-linejoin="round"/>
<ellipse cx="24.5646" cy="69.4183" rx="7.88889" ry="8.05531" transform="rotate(176.567 24.5646 69.4183)" fill="#F6C5A1"/>
<path d="M41.7395 55.7965C45.0656 60.023 35.9228 67.8956 32.663 71.8875L16.0489 71.4067C13.8249 63.5007 10.9376 44.9245 14.8573 44.6894C17.7688 44.5147 17.7336 48.045 17.8561 51.2301C17.755 47.6526 18.4892 42.4616 20.6238 42.3336C23.8613 42.1393 22.9271 48.4391 23.7677 51.5151C23.3495 48.1904 23.8526 41.4699 25.8138 41.3523C29.0826 41.1561 28.6114 47.8839 29.0296 51.2086C29.2518 47.6222 27.8552 42.5697 31.124 42.3736C34.3928 42.1775 34.4147 54.0028 34.1347 60.2724C36.3983 57.9035 39.6427 53.1321 41.7395 55.7965Z" fill="#F6C5A1"/>
<path d="M23.1378 67.117C23.469 64.5966 24.7787 62.9268 27.0196 61.3148C28.9344 59.9374 32.7258 59.9496 33.5294 60.356" stroke="black" stroke-width="2" stroke-linecap="round"/>
<path d="M17.632 51.2071C17.6382 51.4263 17.6475 51.6394 17.6599 51.845C17.6492 51.6347 17.6403 51.4217 17.632 51.2071Z" fill="#F6C5A1"/>
<path d="M33.2322 70.3393C36.492 66.3474 44.8416 60 41.5155 55.7734C39.4187 53.109 36.1743 57.8804 33.9107 60.2494C34.1907 53.9797 34.1687 42.1544 30.8999 42.3505C27.6312 42.5466 29.0278 47.5991 28.8055 51.1855C28.3874 47.8608 28.8586 41.1331 25.5898 41.3292C23.6285 41.4468 23.1255 48.1674 23.5437 51.492C22.703 48.416 23.6373 42.1163 20.3998 42.3105C18.1343 42.4464 17.4463 48.2847 17.6599 51.845C17.4915 48.5145 17.741 44.4798 14.6332 44.6663C10.7136 44.9014 14.2985 63.9731 16.5224 71.8791" stroke="black" stroke-width="2" stroke-linecap="round" stroke-linejoin="round"/>
<g filter="url(#filter0_d)">
<path d="M26.287 50.315C23.767 50.315 21.502 49.79 19.492 48.74C17.512 47.69 15.952 46.19 14.812 44.24C13.672 42.29 13.102 39.995 13.102 37.355C13.102 34.745 13.672 32.465 14.812 30.515C15.982 28.565 17.557 27.065 19.537 26.015C21.547 24.965 23.812 24.44 26.332 24.44C28.852 24.44 31.102 24.965 33.082 26.015C35.092 27.065 36.667 28.565 37.807 30.515C38.977 32.465 39.562 34.745 39.562 37.355C39.562 39.965 38.977 42.26 37.807 44.24C36.667 46.19 35.092 47.69 33.082 48.74C31.072 49.79 28.807 50.315 26.287 50.315ZM26.287 42.665C27.517 42.665 28.537 42.215 29.347 41.315C30.187 40.385 30.607 39.065 30.607 37.355C30.607 35.645 30.187 34.34 29.347 33.44C28.537 32.54 27.532 32.09 26.332 32.09C25.132 32.09 24.127 32.54 23.317 33.44C22.507 34.34 22.102 35.645 22.102 37.355C22.102 39.095 22.492 40.415 23.272 41.315C24.052 42.215 25.057 42.665 26.287 42.665ZM63.6704 42.485V50H59.8454C53.3954 50 50.1704 46.805 50.1704 40.415V32.09H47.0654V24.755H50.1704V18.635H59.0354V24.755H63.6254V32.09H59.0354V40.55C59.0354 41.24 59.1854 41.735 59.4854 42.035C59.8154 42.335 60.3554 42.485 61.1054 42.485H63.6704ZM89.9458 24.53C92.8258 24.53 95.1058 25.505 96.7858 27.455C98.4958 29.375 99.3508 31.985 99.3508 35.285V50H90.5308V36.455C90.5308 35.015 90.1558 33.89 89.4058 33.08C88.6558 32.24 87.6508 31.82 86.3908 31.82C85.0708 31.82 84.0358 32.24 83.2858 33.08C82.5358 33.89 82.1608 35.015 82.1608 36.455V50H73.3408V16.7H82.1608V28.355C82.9408 27.215 83.9908 26.3 85.3108 25.61C86.6608 24.89 88.2058 24.53 89.9458 24.53ZM133.935 37.085C133.935 37.775 133.89 38.465 133.8 39.155H117.105C117.195 40.535 117.57 41.57 118.23 42.26C118.92 42.92 119.79 43.25 120.84 43.25C122.31 43.25 123.36 42.59 123.99 41.27H133.395C133.005 43.01 132.24 44.57 131.1 45.95C129.99 47.3 128.58 48.365 126.87 49.145C125.16 49.925 123.27 50.315 121.2 50.315C118.71 50.315 116.49 49.79 114.54 48.74C112.62 47.69 111.105 46.19 109.995 44.24C108.915 42.29 108.375 39.995 108.375 37.355C108.375 34.715 108.915 32.435 109.995 30.515C111.075 28.565 112.575 27.065 114.495 26.015C116.445 24.965 118.68 24.44 121.2 24.44C123.69 24.44 125.895 24.95 127.815 25.97C129.735 26.99 131.235 28.46 132.315 30.38C133.395 32.27 133.935 34.505 133.935 37.085ZM124.935 34.88C124.935 33.8 124.575 32.96 123.855 32.36C123.135 31.73 122.235 31.415 121.155 31.415C120.075 31.415 119.19 31.715 118.5 32.315C117.81 32.885 117.36 33.74 117.15 34.88H124.935ZM151.99 29.21C152.98 27.77 154.18 26.63 155.59 25.79C157 24.95 158.515 24.53 160.135 24.53V33.935H157.66C155.74 33.935 154.315 34.31 153.385 35.06C152.455 35.81 151.99 37.115 151.99 38.975V50H143.17V24.755H151.99V29.21ZM179.677 50.315C177.397 50.315 175.357 49.94 173.557 49.19C171.787 48.41 170.377 47.36 169.327 46.04C168.307 44.69 167.737 43.175 167.617 41.495H176.167C176.287 42.305 176.662 42.935 177.292 43.385C177.922 43.835 178.702 44.06 179.632 44.06C180.352 44.06 180.922 43.91 181.342 43.61C181.762 43.31 181.972 42.92 181.972 42.44C181.972 41.81 181.627 41.345 180.937 41.045C180.247 40.745 179.107 40.415 177.517 40.055C175.717 39.695 174.217 39.29 173.017 38.84C171.817 38.39 170.767 37.655 169.867 36.635C168.997 35.615 168.562 34.235 168.562 32.495C168.562 30.995 168.967 29.645 169.777 28.445C170.587 27.215 171.772 26.24 173.332 25.52C174.922 24.8 176.827 24.44 179.047 24.44C182.347 24.44 184.942 25.25 186.832 26.87C188.722 28.49 189.817 30.62 190.117 33.26H182.152C182.002 32.45 181.642 31.835 181.072 31.415C180.532 30.965 179.797 30.74 178.867 30.74C178.147 30.74 177.592 30.875 177.202 31.145C176.842 31.415 176.662 31.79 176.662 32.27C176.662 32.87 177.007 33.335 177.697 33.665C178.387 33.965 179.497 34.28 181.027 34.61C182.857 35 184.372 35.435 185.572 35.915C186.802 36.395 187.867 37.175 188.767 38.255C189.697 39.305 190.162 40.745 190.162 42.575C190.162 44.045 189.727 45.365 188.857 46.535C188.017 47.705 186.802 48.635 185.212 49.325C183.652 49.985 181.807 50.315 179.677 50.315Z" fill="#C84876"/>
</g>
<defs>
<filter id="filter0_d" x="9.10196" y="16.7" width="185.06" height="41.615" filterUnits="userSpaceOnUse" color-interpolation-filters="sRGB">
<feFlood flood-opacity="0" result="BackgroundImageFix"/>
<feColorMatrix in="SourceAlpha" type="matrix" values="0 0 0 0 0 0 0 0 0 0 0 0 0 0 0 0 0 0 127 0"/>
<feOffset dy="4"/>
<feGaussianBlur stdDeviation="2"/>
<feColorMatrix type="matrix" values="0 0 0 0 0 0 0 0 0 0 0 0 0 0 0 0 0 0 0.25 0"/>
<feBlend mode="normal" in2="BackgroundImageFix" result="effect1_dropShadow"/>
<feBlend mode="normal" in="SourceGraphic" in2="effect1_dropShadow" result="shape"/>
</filter>
</defs>
</svg>
